<?xml version="1.0" standalone="no"?>
<!DOCTYPE svg PUBLIC "-//W3C//DTD SVG 1.1//EN" "https://www.w3.org/Graphics/SVG/1.1/DTD/svg11.dtd">

<svg width="800" height="600" version="1.1" xmlns="http://www.w3.org/2000/svg">
	<ellipse stroke="black" stroke-width="1" fill="none" cx="491.5" cy="243.5" rx="30" ry="30"/>
	<text x="481.5" y="249.5" font-family="Times New Roman" font-size="20">q3</text>
	<ellipse stroke="black" stroke-width="1" fill="none" cx="172.5" cy="243.5" rx="30" ry="30"/>
	<text x="162.5" y="249.5" font-family="Times New Roman" font-size="20">q1</text>
	<ellipse stroke="black" stroke-width="1" fill="none" cx="331.5" cy="243.5" rx="30" ry="30"/>
	<text x="321.5" y="249.5" font-family="Times New Roman" font-size="20">q2</text>
	<ellipse stroke="black" stroke-width="1" fill="none" cx="331.5" cy="243.5" rx="24" ry="24"/>
	<polygon stroke="black" stroke-width="1" points="172.5,341.5 172.5,273.5"/>
	<text x="142.5" y="362.5" font-family="Times New Roman" font-size="20">START</text>
	<polygon fill="black" stroke-width="1" points="172.5,273.5 167.5,281.5 177.5,281.5"/>
	<path stroke="black" stroke-width="1" fill="none" d="M 159.275,216.703 A 22.5,22.5 0 1 1 185.725,216.703"/>
	<text x="168.5" y="167.5" font-family="Times New Roman" font-size="20">a</text>
	<polygon fill="black" stroke-width="1" points="185.725,216.703 194.473,213.17 186.382,207.292"/>
	<polygon stroke="black" stroke-width="1" points="202.5,243.5 301.5,243.5"/>
	<polygon fill="black" stroke-width="1" points="301.5,243.5 293.5,238.5 293.5,248.5"/>
	<text x="247.5" y="264.5" font-family="Times New Roman" font-size="20">a</text>
	<path stroke="black" stroke-width="1" fill="none" d="M 351.109,220.963 A 94.238,94.238 0 0 1 471.891,220.963"/>
	<polygon fill="black" stroke-width="1" points="471.891,220.963 468.954,211.998 462.546,219.675"/>
	<text x="407.5" y="190.5" font-family="Times New Roman" font-size="20">a</text>
	<path stroke="black" stroke-width="1" fill="none" d="M 476.003,269.009 A 85.847,85.847 0 0 1 346.997,269.009"/>
	<polygon fill="black" stroke-width="1" points="346.997,269.009 348.519,278.32 356.033,271.721"/>
	<text x="399.5" y="319.5" font-family="Times New Roman" font-size="20">a,b</text>
	<path stroke="black" stroke-width="1" fill="none" d="M 318.275,216.703 A 22.5,22.5 0 1 1 344.725,216.703"/>
	<text x="326.5" y="167.5" font-family="Times New Roman" font-size="20">b</text>
	<polygon fill="black" stroke-width="1" points="344.725,216.703 353.473,213.17 345.382,207.292"/>
</svg>
